<svg aria-hidden="true" style="position: absolute; width: 0; height: 0; overflow: hidden;" version="1.1" xmlns="http://www.w3.org/2000/svg" xmlns:xlink="http://www.w3.org/1999/xlink">
<defs>
<symbol id="icon-apple" viewBox="0 0 28 32">
<path  d="M9.411 31.48c-4.962-0.026-9.067-9.379-9.067-14.143 0-7.781 6.321-9.484 8.758-9.484 1.098 0 2.27 0.398 3.304 0.75 0.723 0.246 1.471 0.499 1.887 0.499 0.249 0 0.836-0.216 1.354-0.405 1.105-0.406 2.479-0.911 4.080-0.911 0.003 0 0.007 0 0.009 0 1.195 0 4.819 0.242 6.998 3.263l0.51 0.708-0.735 0.512c-1.049 0.731-2.964 2.065-2.964 4.706 0 3.128 2.168 4.332 3.21 4.91 0.46 0.255 0.936 0.519 0.936 1.095 0 0.376-3.251 8.452-7.972 8.452-1.155 0-1.972-0.321-2.692-0.603-0.729-0.286-1.357-0.533-2.396-0.533-0.527 0-1.192 0.23-1.897 0.474-0.963 0.332-2.054 0.709-3.291 0.709h-0.032z"></path>
<path  d="M20.226 0.695c0.123 4.093-3.047 6.933-6.214 6.755-0.522-3.267 3.166-6.755 6.214-6.755z"></path>
</symbol>
<symbol id="icon-google-play" viewBox="0 0 34 32">
<path fill="#2196f3" style="fill: var(--color2, #2196f3)" d="M19.321 15.961l-16.636 14.791c-0.779-0.492-1.242-1.309-1.233-2.18v-25.221c-0.008-0.871 0.454-1.689 1.233-2.18l16.636 14.791z"></path>
<path fill="#4caf50" style="fill: var(--color3, #4caf50)" d="M25.142 10.794l-5.821 5.166-16.636-14.791c0.063-0.045 0.128-0.087 0.196-0.125 0.879-0.492 1.977-0.508 2.873-0.042l19.388 9.791z"></path>
<path fill="#f0bb1f" style="fill: var(--color4, #f0bb1f)" d="M32.197 15.961c0.011 0.983-0.568 1.892-1.504 2.361l-5.55 2.805-5.821-5.166 5.821-5.166 5.55 2.805c0.936 0.469 1.515 1.378 1.504 2.361z"></path>
<path fill="#f15a2b" style="fill: var(--color5, #f15a2b)" d="M25.142 21.127l-19.388 9.791c-0.897 0.459-1.992 0.443-2.873-0.042-0.068-0.038-0.133-0.080-0.196-0.125l16.636-14.791 5.821 5.166z"></path>
</symbol>
<symbol id="icon-video" viewBox="0 0 32 32">
<path  d="M16.145 0.159c-8.699 0-15.775 7.077-15.775 15.775s7.076 15.775 15.775 15.775 15.775-7.077 15.775-15.775c0-8.698-7.076-15.775-15.775-15.775zM16.145 30.394c-7.973 0-14.46-6.487-14.46-14.46s6.487-14.46 14.46-14.46c7.973 0 14.46 6.487 14.46 14.46s-6.487 14.46-14.46 14.46z"></path>
<path  d="M22.416 15.381l-9.202-5.916c-0.202-0.132-0.462-0.139-0.67-0.024-0.212 0.116-0.343 0.336-0.343 0.577v11.831c0 0.241 0.131 0.462 0.343 0.577 0.098 0.053 0.207 0.080 0.315 0.080 0.123 0 0.248-0.035 0.356-0.105l9.202-5.916c0.187-0.121 0.302-0.329 0.302-0.553s-0.114-0.432-0.302-0.553zM13.516 20.645v-9.423l7.329 4.711-7.329 4.711z"></path>
</symbol>
<symbol id="icon-logo" viewBox="0 0 108 32">
<path  d="M13.533 2.347h5.16l12.32 28.32h-7.040l-2.44-6h-11l-2.36 6h-6.88l12.24-28.32zM15.933 10.587l-3.44 8.8h6.92l-3.48-8.8z"></path>
<path  d="M33.182 0.427h6v30.24h-6v-30.24z"></path>
<path  d="M43.572 11.227h6v19.44h-6v-19.44zM43.092 5.107c0-0.96 0.333-1.773 1-2.44 0.693-0.693 1.52-1.040 2.48-1.040s1.773 0.347 2.44 1.040c0.693 0.667 1.040 1.48 1.040 2.44s-0.347 1.787-1.040 2.48c-0.667 0.667-1.48 1-2.44 1s-1.787-0.333-2.48-1c-0.667-0.693-1-1.52-1-2.48z"></path>
<path  d="M51.843 11.227h6.48l4.92 13.2h0.080l4.56-13.2h6.040l-7.68 19.44h-6.36l-8.040-19.44z"></path>
<path  d="M76.19 11.227h6v19.44h-6v-19.44zM75.71 5.107c0-0.96 0.333-1.773 1-2.44 0.693-0.693 1.52-1.040 2.48-1.040s1.773 0.347 2.44 1.040c0.693 0.667 1.040 1.48 1.040 2.44s-0.347 1.787-1.040 2.48c-0.667 0.667-1.48 1-2.44 1s-1.787-0.333-2.48-1c-0.667-0.693-1-1.52-1-2.48z"></path>
<path  d="M85.78 20.947c0-1.547 0.28-2.947 0.84-4.2s1.32-2.32 2.28-3.2c0.987-0.907 2.133-1.6 3.44-2.080 1.333-0.48 2.747-0.72 4.24-0.72s2.893 0.24 4.2 0.72c1.333 0.48 2.48 1.173 3.44 2.080 0.987 0.88 1.76 1.947 2.32 3.2s0.84 2.653 0.84 4.2c0 1.547-0.28 2.947-0.84 4.2s-1.333 2.333-2.32 3.24c-0.96 0.88-2.107 1.56-3.44 2.040-1.307 0.48-2.707 0.72-4.2 0.72s-2.907-0.24-4.24-0.72c-1.307-0.48-2.453-1.16-3.44-2.040-0.96-0.907-1.72-1.987-2.28-3.24s-0.84-2.653-0.84-4.2zM91.78 20.947c0 1.467 0.413 2.653 1.24 3.56 0.853 0.907 2.040 1.36 3.56 1.36s2.693-0.453 3.52-1.36c0.853-0.907 1.28-2.093 1.28-3.56s-0.427-2.653-1.28-3.56c-0.827-0.907-2-1.36-3.52-1.36s-2.707 0.453-3.56 1.36c-0.827 0.907-1.24 2.093-1.24 3.56z"></path>
</symbol>
<symbol id="icon-facebook" viewBox="0 0 32 32">
<path  d="M21.329 5.313h2.921v-5.088c-0.504-0.069-2.237-0.225-4.256-0.225-4.212 0-7.097 2.649-7.097 7.519v4.481h-4.648v5.688h4.648v14.312h5.699v-14.311h4.46l0.708-5.688h-5.169v-3.919c0.001-1.644 0.444-2.769 2.735-2.769z"></path>
</symbol>
<symbol id="icon-twitter" viewBox="0 0 32 32">
<path  d="M32 6.078c-1.19 0.522-2.458 0.868-3.78 1.036 1.36-0.812 2.398-2.088 2.886-3.626-1.268 0.756-2.668 1.29-4.16 1.588-1.204-1.282-2.92-2.076-4.792-2.076-3.632 0-6.556 2.948-6.556 6.562 0 0.52 0.044 1.020 0.152 1.496-5.454-0.266-10.28-2.88-13.522-6.862-0.566 0.982-0.898 2.106-0.898 3.316 0 2.272 1.17 4.286 2.914 5.452-1.054-0.020-2.088-0.326-2.964-0.808 0 0.020 0 0.046 0 0.072 0 3.188 2.274 5.836 5.256 6.446-0.534 0.146-1.116 0.216-1.72 0.216-0.42 0-0.844-0.024-1.242-0.112 0.85 2.598 3.262 4.508 6.13 4.57-2.232 1.746-5.066 2.798-8.134 2.798-0.538 0-1.054-0.024-1.57-0.090 2.906 1.874 6.35 2.944 10.064 2.944 12.072 0 18.672-10 18.672-18.668 0-0.29-0.010-0.57-0.024-0.848 1.302-0.924 2.396-2.078 3.288-3.406z"></path>
</symbol>
<symbol id="icon-instagram" viewBox="0 0 32 32">
<path  d="M31.969 9.408c-0.075-1.7-0.35-2.869-0.744-3.882-0.406-1.075-1.032-2.038-1.851-2.838-0.8-0.813-1.769-1.444-2.832-1.844-1.019-0.394-2.182-0.669-3.882-0.744-1.713-0.081-2.257-0.1-6.601-0.1s-4.888 0.019-6.595 0.094c-1.7 0.075-2.869 0.35-3.882 0.744-1.075 0.406-2.038 1.031-2.838 1.85-0.813 0.8-1.444 1.769-1.844 2.832-0.394 1.019-0.669 2.182-0.744 3.882-0.081 1.713-0.1 2.257-0.1 6.601s0.019 4.888 0.094 6.595c0.075 1.7 0.35 2.869 0.744 3.882 0.406 1.075 1.038 2.038 1.85 2.838 0.8 0.813 1.769 1.444 2.832 1.844 1.019 0.394 2.182 0.669 3.882 0.744 1.706 0.075 2.25 0.094 6.595 0.094s4.888-0.019 6.595-0.094c1.7-0.075 2.869-0.35 3.882-0.744 2.151-0.832 3.851-2.532 4.682-4.682 0.394-1.019 0.669-2.182 0.744-3.882 0.075-1.707 0.094-2.251 0.094-6.595s-0.006-4.888-0.081-6.595zM29.087 22.473c-0.069 1.563-0.331 2.407-0.55 2.969-0.538 1.394-1.644 2.5-3.038 3.038-0.563 0.219-1.413 0.481-2.969 0.55-1.688 0.075-2.194 0.094-6.464 0.094s-4.782-0.019-6.464-0.094c-1.563-0.069-2.407-0.331-2.969-0.55-0.694-0.256-1.325-0.663-1.838-1.194-0.531-0.519-0.938-1.144-1.194-1.838-0.219-0.563-0.481-1.413-0.55-2.969-0.075-1.688-0.094-2.194-0.094-6.464s0.019-4.782 0.094-6.464c0.069-1.563 0.331-2.407 0.55-2.969 0.256-0.694 0.663-1.325 1.2-1.838 0.519-0.531 1.144-0.938 1.838-1.194 0.563-0.219 1.413-0.481 2.969-0.55 1.688-0.075 2.194-0.094 6.464-0.094 4.276 0 4.782 0.019 6.464 0.094 1.563 0.069 2.407 0.331 2.969 0.55 0.694 0.256 1.325 0.662 1.838 1.194 0.531 0.519 0.938 1.144 1.194 1.838 0.219 0.563 0.481 1.413 0.55 2.969 0.075 1.688 0.094 2.194 0.094 6.464s-0.019 4.77-0.094 6.458z"></path>
<path  d="M16.059 7.783c-4.538 0-8.22 3.682-8.22 8.22s3.682 8.22 8.22 8.22c4.538 0 8.22-3.682 8.22-8.22s-3.682-8.22-8.22-8.22zM16.059 21.335c-2.944 0-5.332-2.388-5.332-5.332s2.388-5.332 5.332-5.332c2.944 0 5.332 2.388 5.332 5.332s-2.388 5.332-5.332 5.332z"></path>
<path  d="M26.524 7.458c0 1.060-0.859 1.919-1.919 1.919s-1.919-0.859-1.919-1.919c0-1.060 0.859-1.919 1.919-1.919s1.919 0.859 1.919 1.919z"></path>
</symbol>
</defs>
</svg>
